<svg viewBox="0 0 100 100" xmlns="http://www.w3.org/2000/svg">
  <circle cx="50" cy="50" r="48" fill="#ffffff" stroke="#2c5aa0" strokeWidth="2"/>
  <rect x="45" y="25" width="10" height="50" fill="#2c5aa0" rx="2"/>
  <rect x="25" y="45" width="50" height="10" fill="#2c5aa0" rx="2"/>
  <path d="M 50 42 C 50 42, 45 35, 40 35 C 35 35, 32 38, 32 42 C 32 48, 50 58, 50 58 C 50 58, 68 48, 68 42 C 68 38, 65 35, 60 35 C 55 35, 50 42, 50 42 Z" fill="#e74c3c" opacity="0.9"/>
  <path d="M 30 70 Q 35 75, 40 70 L 38 68 Q 35 71, 32 68 Z" fill="#f39c12"/>
  <path d="M 60 70 Q 65 75, 70 70 L 68 68 Q 65 71, 62 68 Z" fill="#f39c12"/>
  <rect x="20" y="20" width="3" height="8" fill="#002d62"/>
  <rect x="20" y="28" width="3" height="8" fill="#ce1126"/>
  <path id="curve" d="M 15,50 A 35,35 0 0,1 85,50" fill="none"/>
  <text fontSize="8" fill="#2c5aa0" fontWeight="bold">
    <textPath href="#curve" startOffset="50%" textAnchor="middle">
      SERVING WITH LOVE
    </textPath>
  </text>
</svg>
